<?xml version="1.0" encoding="UTF-8"?>
<!DOCTYPE svg PUBLIC "-//W3C//DTD SVG 1.1//EN" "http://www.w3.org/Graphics/SVG/1.1/DTD/svg11.dtd">
<!-- Creator: CorelDRAW -->
<svg xmlns="http://www.w3.org/2000/svg" xml:space="preserve" width="13.8066mm" height="13.8078mm" version="1.1" style="shape-rendering:geometricPrecision; text-rendering:geometricPrecision; image-rendering:optimizeQuality; fill-rule:evenodd; clip-rule:evenodd"
viewBox="0 0 79.31 79.32"
 xmlns:xlink="http://www.w3.org/1999/xlink"
 xmlns:xodm="http://www.corel.com/coreldraw/odm/2003">
 <defs>
  <style type="text/css">
   <![CDATA[
    .fil0 {fill:black}
   ]]>
  </style>
 </defs>
 <g id="Слой_x0020_1">
  <metadata id="CorelCorpID_0Corel-Layer"/>
  <path class="fil0" d="M4.94 39.66c0,-1.18 0.17,-2.94 0.3,-4.04 0.42,-3.58 1.4,-7.07 2.81,-10.21l2.29 -4.22c1.89,-2.8 3.41,-4.81 5.96,-7.06l2.33 -2.01c5.34,-3.98 12.35,-6.96 19.02,-7.01 0.88,-0.01 1.08,-0.17 2.01,-0.17 0.93,0 1.13,0.16 2.01,0.17 3.93,0.03 8.88,1.44 12.24,2.94l7.99 5.02c3.63,2.84 7.46,8.09 9.36,12.33 1.39,3.11 2.39,6.65 2.81,10.21l0.31 4.04c0,1.8 -0.54,6.12 -0.94,7.75 -0.58,2.35 -1.27,4.48 -2.17,6.5 -0.96,2.14 -1.9,3.62 -3.16,5.52 -3.24,4.88 -8.84,9.43 -14.19,11.84 -3.34,1.5 -8.33,2.91 -12.24,2.94 -0.88,0.01 -1.08,0.17 -2.01,0.17l-4.04 -0.31c-1.28,-0.15 -2.57,-0.36 -3.71,-0.63 -6.88,-1.68 -13.1,-5.12 -17.78,-10.42 -1.05,-1.19 -1.96,-2.13 -2.92,-3.59 -0.33,-0.49 -0.55,-0.83 -0.87,-1.3 -0.34,-0.51 -0.48,-0.81 -0.81,-1.36 -0.56,-0.95 -1.04,-1.88 -1.48,-2.86 -1.86,-4.16 -3.1,-9.53 -3.1,-14.25l0 0.01zm33.45 -39.66l2.74 0c2.81,0.09 5.61,0.48 8.34,1.18 3.53,0.9 7.17,2.4 10.19,4.22 2.89,1.73 4.43,2.89 6.82,5.11 2.15,2 2.66,2.5 4.63,4.97 5.07,6.34 7.91,14.58 8.19,22.94l0 2.74c-0.09,2.81 -0.48,5.61 -1.18,8.34 -2.62,10.31 -9.44,19.14 -18.57,24.51 -1.01,0.59 -2.04,1.19 -3.14,1.66 -2.36,1.01 -4.34,1.85 -7.07,2.53 -4.42,1.11 -6.51,1.14 -10.89,1.15l-0.21 0c-5.46,0 -11.82,-1.91 -15.49,-3.71 -1.08,-0.54 -2.09,-1.05 -3.13,-1.68 -0.55,-0.33 -1.02,-0.65 -1.53,-0.95 -4.14,-2.49 -8.09,-6.59 -10.9,-10.48 -1.11,-1.53 -2.81,-4.33 -3.54,-6.06 -2.97,-6.96 -3.67,-10.46 -3.67,-18.17 0,-5.46 1.91,-11.82 3.71,-15.49 1.09,-2.21 2.21,-4.12 3.56,-6.04 0.36,-0.51 0.64,-0.93 1.05,-1.43 2.44,-2.96 4.12,-4.7 7.14,-7.11 6.34,-5.07 14.58,-7.91 22.94,-8.19l-0.01 0z"/>
  <path class="fil0" d="M18.42 50.2c0,1.86 2.13,4.55 3.37,5.78 0.66,0.66 1.4,1.5 2.12,2.06l2.47 1.86c4.94,3.32 11.13,4.45 17.09,3.58 6.13,-0.9 9.85,-3.37 13.95,-7.43 1.26,-1.25 3.45,-3.96 3.45,-5.85 0,-1.49 -2.8,-3.73 -4.84,-0.65 -3.89,5.89 -9.27,9.18 -16.55,9.18 -5.68,0 -11.22,-2.61 -14.7,-6.99 -0.57,-0.72 -0.94,-1.28 -1.47,-2.09 -2.15,-3.28 -4.9,-0.86 -4.9,0.56l0.01 -0z"/>
  <path class="fil0" d="M50.96 29.75c0,6.6 9.49,6.95 10.03,0.27 0.19,-2.35 -2.21,-5.07 -4.45,-5.07 -1.62,0 -2.95,0.13 -4.23,1.51 -0.64,0.69 -1.35,2.01 -1.35,3.3l-0 0z"/>
  <path class="fil0" d="M18.26 29.9c0,0.44 0.32,1.57 0.44,1.89 0.55,1.5 2.37,3.07 4.36,3.07 5.06,0 6.68,-5.29 3.91,-8.41 -1.22,-1.39 -2.63,-1.51 -4.23,-1.51 -2.36,0 -4.49,2.72 -4.49,4.95l0.01 0z"/>
 </g>
</svg>
