<?xml version="1.0" encoding="UTF-8"?>
<!DOCTYPE svg PUBLIC "-//W3C//DTD SVG 1.1//EN" "http://www.w3.org/Graphics/SVG/1.1/DTD/svg11.dtd">
<!-- Creator: CorelDRAW -->
<svg xmlns="http://www.w3.org/2000/svg" xml:space="preserve" width="13.8079mm" height="13.8079mm" version="1.1" style="shape-rendering:geometricPrecision; text-rendering:geometricPrecision; image-rendering:optimizeQuality; fill-rule:evenodd; clip-rule:evenodd"
viewBox="0 0 190.53 190.53"
 xmlns:xlink="http://www.w3.org/1999/xlink"
 xmlns:xodm="http://www.corel.com/coreldraw/odm/2003">
 <defs>
  <style type="text/css">
   <![CDATA[
    .fil0 {fill:black}
    .fil1 {fill:black}
   ]]>
  </style>
 </defs>
 <g id="Слой_x0020_1">
  <metadata id="CorelCorpID_0Corel-Layer"/>
  <g id="_2487112432832">
   <path class="fil0" d="M11.91 95.26c0,-2.84 0.4,-7.06 0.71,-9.71 1,-8.6 3.36,-17 6.74,-24.53l5.5 -10.13c4.53,-6.73 8.19,-11.55 14.31,-16.95l5.6 -4.82c12.82,-9.55 29.67,-16.73 45.68,-16.84 2.11,-0.02 2.6,-0.41 4.83,-0.41 2.23,0 2.71,0.4 4.82,0.41 9.44,0.07 21.33,3.46 29.41,7.06l19.2 12.06c8.72,6.82 17.92,19.44 22.48,29.62 3.35,7.46 5.75,15.98 6.74,24.52l0.74 9.71c0,4.33 -1.3,14.7 -2.25,18.61 -1.38,5.66 -3.04,10.77 -5.22,15.62 -2.31,5.14 -4.56,8.7 -7.59,13.25 -7.79,11.73 -21.22,22.65 -34.09,28.42 -8.03,3.6 -20.01,7 -29.41,7.06 -2.11,0.02 -2.59,0.41 -4.82,0.41l-9.71 -0.74c-3.07,-0.35 -6.18,-0.85 -8.9,-1.52 -16.52,-4.04 -31.46,-12.3 -42.7,-25.03 -2.53,-2.87 -4.69,-5.12 -7.01,-8.62 -0.79,-1.19 -1.31,-1.99 -2.08,-3.13 -0.83,-1.23 -1.16,-1.95 -1.94,-3.27 -1.35,-2.28 -2.51,-4.51 -3.56,-6.86 -4.48,-9.99 -7.45,-22.9 -7.45,-34.23zm80.35 -95.26l6.57 0c6.75,0.23 13.48,1.16 20.03,2.82 8.48,2.15 17.21,5.78 24.48,10.13 6.94,4.16 10.65,6.95 16.39,12.27 5.18,4.8 6.38,6.01 11.13,11.95 12.18,15.23 19,35.01 19.67,55.1l0 6.57c-0.23,6.75 -1.16,13.48 -2.82,20.03 -6.29,24.76 -22.69,45.99 -44.59,58.86 -2.44,1.43 -4.91,2.86 -7.55,3.99 -5.68,2.43 -10.42,4.43 -17,6.07 -10.61,2.65 -15.64,2.75 -26.14,2.75l-0.51 0c-13.11,0 -28.4,-4.58 -37.22,-8.92 -2.61,-1.28 -5.02,-2.53 -7.51,-4.03 -1.33,-0.79 -2.46,-1.56 -3.67,-2.29 -9.94,-5.97 -19.43,-15.84 -26.19,-25.17 -2.65,-3.66 -6.74,-10.41 -8.51,-14.56 -7.14,-16.71 -8.82,-25.11 -8.82,-43.65 0,-13.11 4.58,-28.4 8.93,-37.22 2.61,-5.3 5.3,-9.89 8.56,-14.51 0.85,-1.21 1.54,-2.23 2.52,-3.43 5.86,-7.12 9.91,-11.29 17.15,-17.08 15.23,-12.18 35.01,-19 55.1,-19.67z"/>
   <path class="fil0" d="M122.43 71.45c0,15.85 22.79,16.69 24.1,0.65 0.46,-5.65 -5.32,-12.18 -10.7,-12.18 -3.9,0 -7.08,0.3 -10.15,3.62 -1.54,1.66 -3.25,4.83 -3.25,7.92z"/>
   <path class="fil0" d="M43.91 71.82c0,1.07 0.77,3.76 1.05,4.53 1.32,3.59 5.69,7.38 10.48,7.38 12.15,0 16.04,-12.7 9.4,-20.2 -2.94,-3.33 -6.3,-3.62 -10.15,-3.62 -5.66,0 -10.79,6.54 -10.79,11.91z"/>
   <rect class="fil1" x="44.39" y="120.41" width="101.74" height="12.86" rx="6.98" ry="6.43"/>
  </g>
 </g>
</svg>
