<?xml version="1.0" encoding="UTF-8"?>
<!DOCTYPE svg PUBLIC "-//W3C//DTD SVG 1.1//EN" "http://www.w3.org/Graphics/SVG/1.1/DTD/svg11.dtd">
<!-- Creator: CorelDRAW -->
<svg xmlns="http://www.w3.org/2000/svg" xml:space="preserve" width="13.8079mm" height="13.8079mm" version="1.1" style="shape-rendering:geometricPrecision; text-rendering:geometricPrecision; image-rendering:optimizeQuality; fill-rule:evenodd; clip-rule:evenodd"
viewBox="0 0 324.16 324.16"
 xmlns:xlink="http://www.w3.org/1999/xlink"
 xmlns:xodm="http://www.corel.com/coreldraw/odm/2003">
 <defs>
  <style type="text/css">
   <![CDATA[
    .fil0 {fill:black}
   ]]>
  </style>
 </defs>
 <g id="Слой_x0020_1">
  <metadata id="CorelCorpID_0Corel-Layer"/>
  <g id="_2488182878352">
   <path class="fil0" d="M20.26 162.08c0,-4.83 0.69,-12.01 1.21,-16.51 1.7,-14.63 5.71,-28.92 11.46,-41.73l9.36 -17.23c7.7,-11.45 13.93,-19.64 24.34,-28.84l9.52 -8.2c21.81,-16.25 50.49,-28.46 77.72,-28.65 3.6,-0.03 4.42,-0.7 8.21,-0.7 3.79,0 4.61,0.67 8.21,0.7 16.06,0.11 36.29,5.89 50.03,12.02l32.66 20.52c14.84,11.6 30.48,33.08 38.25,50.39 5.69,12.7 9.78,27.19 11.46,41.72l1.25 16.52c0,7.37 -2.2,25.01 -3.83,31.66 -2.35,9.62 -5.18,18.33 -8.88,26.58 -3.93,8.75 -7.76,14.8 -12.9,22.55 -13.25,19.96 -36.11,38.54 -58,48.36 -13.65,6.12 -34.04,11.9 -50.03,12.02 -3.6,0.03 -4.42,0.7 -8.21,0.7l-16.52 -1.26c-5.22,-0.6 -10.52,-1.45 -15.15,-2.58 -28.1,-6.87 -53.52,-20.93 -72.65,-42.58 -4.31,-4.88 -7.99,-8.71 -11.93,-14.66 -1.34,-2.02 -2.23,-3.38 -3.54,-5.32 -1.41,-2.09 -1.98,-3.31 -3.31,-5.56 -2.3,-3.87 -4.26,-7.68 -6.05,-11.67 -7.62,-16.99 -12.67,-38.96 -12.67,-58.24zm136.71 -162.08l11.18 0c11.48,0.39 22.93,1.97 34.08,4.8 14.44,3.66 29.29,9.83 41.65,17.23 11.81,7.07 18.12,11.82 27.88,20.87 8.81,8.16 10.86,10.23 18.93,20.32 20.71,25.91 32.32,59.57 33.47,93.75l0 11.18c-0.39,11.48 -1.97,22.93 -4.8,34.07 -10.71,42.12 -38.6,78.24 -75.87,100.14 -4.14,2.43 -8.36,4.87 -12.85,6.78 -9.67,4.13 -17.73,7.54 -28.92,10.33 -18.05,4.51 -26.61,4.67 -44.48,4.68l-0.86 0c-22.3,0 -48.33,-7.8 -63.32,-15.18 -4.43,-2.18 -8.53,-4.31 -12.78,-6.85 -2.26,-1.35 -4.18,-2.65 -6.24,-3.89 -16.91,-10.17 -33.05,-26.94 -44.55,-42.82 -4.51,-6.23 -11.46,-17.71 -14.48,-24.78 -12.14,-28.44 -15.01,-42.72 -15.01,-74.26 0,-22.3 7.8,-48.33 15.18,-63.32 4.44,-9.01 9.02,-16.83 14.57,-24.69 1.45,-2.06 2.61,-3.8 4.29,-5.84 9.96,-12.12 16.85,-19.2 29.18,-29.06 25.91,-20.72 59.56,-32.33 93.74,-33.47z"/>
   <path class="fil0" d="M75.34 251.57c0,-7.6 8.72,-18.57 13.76,-23.59 2.72,-2.71 5.71,-6.13 8.67,-8.43l10.11 -7.62c20.2,-13.56 45.5,-18.18 69.84,-14.63 25.06,3.66 40.23,13.77 57.01,30.36 5.16,5.1 14.08,16.18 14.08,23.91 0,6.09 -11.45,15.26 -19.76,2.67 -15.89,-24.07 -37.9,-37.49 -67.61,-37.49 -23.19,0 -45.85,10.67 -60.06,28.57 -2.34,2.94 -3.86,5.24 -6.03,8.53 -8.8,13.39 -20.01,3.51 -20.01,-2.28z"/>
   <path class="fil0" d="M208.29 121.56c0,26.96 38.78,28.39 41,1.1 0.78,-9.61 -9.05,-20.73 -18.21,-20.73 -6.63,0 -12.05,0.51 -17.27,6.16 -2.62,2.83 -5.53,8.22 -5.53,13.47z"/>
   <path class="fil0" d="M74.71 122.19c0,1.81 1.31,6.39 1.79,7.7 2.25,6.1 9.68,12.56 17.83,12.56 20.67,0 27.29,-21.6 16,-34.36 -5.01,-5.66 -10.73,-6.16 -17.26,-6.16 -9.63,0 -18.36,11.13 -18.36,20.26z"/>
  </g>
 </g>
</svg>
