<?xml version="1.0" encoding="UTF-8"?>
<!DOCTYPE svg PUBLIC "-//W3C//DTD SVG 1.1//EN" "http://www.w3.org/Graphics/SVG/1.1/DTD/svg11.dtd">
<!-- Creator: CorelDRAW -->
<svg xmlns="http://www.w3.org/2000/svg" xml:space="preserve" width="14.2437mm" height="13.2941mm" version="1.1" style="shape-rendering:geometricPrecision; text-rendering:geometricPrecision; image-rendering:optimizeQuality; fill-rule:evenodd; clip-rule:evenodd"
viewBox="0 0 145.92 136.2"
 xmlns:xlink="http://www.w3.org/1999/xlink"
 xmlns:xodm="http://www.corel.com/coreldraw/odm/2003">
 <defs>
  <style type="text/css">
   <![CDATA[
    .fil0 {fill:black}
   ]]>
  </style>
 </defs>
 <g id="Слой_x0020_1">
  <metadata id="CorelCorpID_0Corel-Layer"/>
  <g id="_2485211994336">
   <path class="fil0" d="M9.73 91.51l0 -76c0,-3.79 2.01,-5.78 5.78,-5.78l114.91 0c3.73,0 5.78,2.05 5.78,5.78l0 76c0,2.61 -0.99,4.32 -2.74,5.16 -2.34,1.13 -19.73,0.61 -23.1,0.61l-39.54 -0.02c-2.77,0.01 -3.67,1.28 -5.32,2.58 -4.86,3.82 -22.56,18.46 -26.58,21.15 0,-2.92 0.58,-19.41 -0.6,-21.29 -1.02,-1.62 -2.19,-2.45 -4.86,-2.44 -4.87,0.03 -9.74,0.01 -14.6,0.01 -2.55,0 -4.82,0.24 -6.58,-0.72 -1.67,-0.91 -2.54,-2.61 -2.54,-5.06zm-9.73 -78.13l0 80.26c0,3.18 2.02,7.03 4.18,9.19 2.1,2.1 6.07,4.19 9.19,4.19l15.81 0 0 24.93c0,2.2 2.11,4.26 5.47,4.26 1.95,0 9.32,-6.46 11.18,-7.97 8.16,-6.68 17.4,-13.63 25.33,-20.27 0.76,-0.64 0.5,-0.73 1.51,-0.92l57.44 -0.02c3.82,0 5.54,-0.24 8.11,-1.61 3.5,-1.87 7.69,-6.61 7.69,-11.76l0 -80.26c0,-6.51 -6.87,-13.38 -13.38,-13.38l-119.17 0c-6.51,0 -13.38,6.86 -13.38,13.38z"/>
   <path class="fil0" d="M29.18 43.17c0,3.36 2.05,5.47 4.26,5.47l79.04 0c2.2,0 4.26,-2.11 4.26,-5.47 0,-1.9 -2.36,-4.26 -4.26,-4.26l-79.04 0c-2.01,0 -4.26,2.25 -4.26,4.26z"/>
   <path class="fil0" d="M29.18 62.63c0,3.36 2.05,5.47 4.26,5.47l40.13 0c2.2,0 4.26,-2.11 4.26,-5.47 0,-1.9 -2.36,-4.26 -4.26,-4.26l-40.13 0c-2.01,0 -4.26,2.25 -4.26,4.26z"/>
  </g>
 </g>
</svg>
