<?xml version="1.0" encoding="UTF-8"?>
<!DOCTYPE svg PUBLIC "-//W3C//DTD SVG 1.1//EN" "http://www.w3.org/Graphics/SVG/1.1/DTD/svg11.dtd">
<!-- Creator: CorelDRAW -->
<svg xmlns="http://www.w3.org/2000/svg" xml:space="preserve" width="12.9463mm" height="12.3495mm" version="1.1" style="shape-rendering:geometricPrecision; text-rendering:geometricPrecision; image-rendering:optimizeQuality; fill-rule:evenodd; clip-rule:evenodd"
viewBox="0 0 170.62 162.76"
 xmlns:xlink="http://www.w3.org/1999/xlink"
 xmlns:xodm="http://www.corel.com/coreldraw/odm/2003">
 <defs>
  <style type="text/css">
   <![CDATA[
    .fil0 {fill:black}
   ]]>
  </style>
 </defs>
 <g id="Слой_x0020_1">
  <metadata id="CorelCorpID_0Corel-Layer"/>
  <g id="_2489047021488">
   <path class="fil0" d="M85.26 150.24c-13.08,0 -28.2,-4.12 -39.34,-10.72 -12.25,-7.26 -21.7,-16.08 -30.28,-27.21 -5.31,-6.88 -0.93,-10.42 2.96,-15.43 9.96,-12.81 26.29,-24.97 41.86,-30.1 21.46,-7.07 45.43,-4.77 64.61,6.87l8.67 5.8c1.4,1.05 2.76,2.05 4.18,3.25 2.86,2.42 4.84,4.4 7.45,7.02 2.78,2.78 12.76,13.06 12.52,16.64 -0.2,2.9 -3.77,7.03 -5.47,8.99 -5.63,6.45 -7.41,8.63 -14.3,14.64 -13.95,12.2 -33.71,20.25 -52.88,20.25zm-85.26 -43.8c0,7.99 5.62,13.97 10.44,19.67l6.08 6.83c16.78,16.69 41.28,29.82 65.61,29.82 13.95,0 22.31,-0.99 34.58,-5.7 4.66,-1.79 7.74,-3.09 11.83,-5.38 8.31,-4.64 13.43,-7.98 20.56,-14.25 5.54,-4.88 12.08,-12.3 16.55,-18.25 9.11,-12.12 4.37,-20.57 -3.62,-30.07l-8.03 -9.18c-0.88,-0.88 -1.38,-0.99 -2.36,-1.94 -3.68,-3.55 -7.45,-6.93 -11.7,-9.81l-10.61 -6.6c-4,-2.22 -7.25,-3.69 -11.72,-5.49 -19.85,-7.99 -44.56,-8.05 -64.42,-0.11 -2.17,0.87 -3.86,1.62 -5.99,2.61 -3.87,1.8 -7.67,3.63 -11.22,5.99 -3.86,2.57 -6.25,4 -10.08,7.13l-9.18 8.03 -11.87 13.95c-2.51,3.35 -4.86,7.09 -4.86,12.74z"/>
   <path class="fil0" d="M66.49 106.44c0,-2.24 0.9,-6.03 1.69,-7.7 1.28,-2.73 1.9,-3.52 3.88,-5.5 1.99,-1.99 2.77,-2.6 5.5,-3.88 4.6,-2.16 10.8,-2.16 15.4,0 11.89,5.58 14.88,20.91 5.5,30.28 -9.38,9.38 -24.71,6.38 -30.29,-5.5 -0.78,-1.67 -1.69,-5.46 -1.69,-7.7zm-12.52 -2.35c0,9.21 0.69,13.11 5.78,20.81 4.62,6.99 14.75,12.82 23.94,12.82 10.08,0 16.89,-2.22 23.76,-9.09 10.93,-10.93 12.07,-27.39 3.62,-40.19 -2.61,-3.96 -7.37,-8.05 -11.73,-10.17 -15.44,-7.54 -34.94,-1.28 -42.38,14.34 -1.29,2.71 -2.99,7.71 -2.99,11.48z"/>
   <path class="fil0" d="M6.65 25.49c0,4.16 1.49,4.59 5.42,9.44l6.09 7.21c0.63,0.81 0.86,0.94 1.49,1.64l4.6 5.57c0.6,0.78 0.76,0.91 1.47,1.66 2.21,2.38 2.26,4.2 7.14,4.2 4.53,0 8.88,-5.36 4.43,-10.69l-16.06 -19.14c-1.92,-2.16 -4.21,-6.16 -7.92,-6.16 -3.95,0 -6.65,2.74 -6.65,6.26z"/>
   <path class="fil0" d="M79 5.15l0 33.63c0,6.38 12.51,7.5 12.51,-0.78l0 -32.07c0,-8.29 -12.51,-7.26 -12.51,-0.78z"/>
   <path class="fil0" d="M131.8 48.95c0,4.27 5.66,11.14 12.46,2.68 0.6,-0.75 1.07,-1.09 1.68,-1.84 1.03,-1.27 2.06,-2.68 3.17,-3.87 1.15,-1.23 2.19,-2.43 3.25,-3.79l9.64 -11.48c3.46,-3.89 2.8,-9.09 -0.98,-10.94 -3.33,-1.62 -6.47,-0.06 -8.55,2.57l-17.66 21.06c-1.37,1.63 -3.01,2.8 -3.01,5.6z"/>
  </g>
 </g>
</svg>
