<?xml version="1.0" encoding="UTF-8"?>
<!DOCTYPE svg PUBLIC "-//W3C//DTD SVG 1.1//EN" "http://www.w3.org/Graphics/SVG/1.1/DTD/svg11.dtd">
<!-- Creator: CorelDRAW -->
<svg xmlns="http://www.w3.org/2000/svg" xml:space="preserve" width="12.4936mm" height="14.0768mm" version="1.1" style="shape-rendering:geometricPrecision; text-rendering:geometricPrecision; image-rendering:optimizeQuality; fill-rule:evenodd; clip-rule:evenodd"
viewBox="0 0 270.15 304.39"
 xmlns:xlink="http://www.w3.org/1999/xlink"
 xmlns:xodm="http://www.corel.com/coreldraw/odm/2003">
 <defs>
  <style type="text/css">
   <![CDATA[
    .fil0 {fill:black}
   ]]>
  </style>
 </defs>
 <g id="Слой_x0020_1">
  <metadata id="CorelCorpID_0Corel-Layer"/>
  <path class="fil0" d="M-0 304.39l0 -299.38c0,-2.75 2.25,-5.01 5.01,-5.01l10.52 0c2.75,0 5.01,2.25 5.01,5.01l0 52.21 229.09 0 0 -52.21c0,-2.75 2.25,-5.01 5.01,-5.01l10.52 0c2.75,0 5.01,2.25 5.01,5.01l0 299.38 -20.53 0 -229.09 0 -20.53 0zm249.62 -226.63l-229.09 0 0 47.57 229.09 0 0 -47.57zm0 68.11l-229.09 0 0 137.99 229.09 0 0 -137.99z"/>
 </g>
</svg>
